Nunito-700.ufo
<glyph name="exclam" format="1">
  <advance width="783"/>
  <unicode hex="0021"/>
  <outline>
    <contour>
      <point x="329" y="530" type="line"/>
      <point x="339" y="425"/>
      <point x="470" y="424"/>
      <point x="481" y="530" type="curve" smooth="yes"/>
      <point x="557" y="1361" type="line" smooth="yes"/>
      <point x="577" y="1554"/>
      <point x="234" y="1553"/>
      <point x="254" y="1361" type="curve" smooth="yes"/>
    </contour>
    <component base="period" xOffset="97" yOffset="-1"/>
  </outline>
</glyph>
<glyph name="dollar" format="1">
  <advance width="1152"/>
  <unicode hex="0024"/>
  <outline>
    <contour>
      <point x="510" y="0" type="line"/>
      <point x="510" y="-92"/>
      <point x="642" y="-86"/>
      <point x="642" y="0" type="curve" smooth="yes"/>
      <point x="642" y="255" type="line"/>
      <point x="510" y="255" type="line"/>
    </contour>
    <contour>
      <point x="496" y="1191" type="line"/>
      <point x="629" y="1191" type="line"/>
      <point x="629" y="1438" type="line" smooth="yes"/>
      <point x="629" y="1524"/>
      <point x="496" y="1530"/>
      <point x="496" y="1438" type="curve" smooth="yes"/>
    </contour>
    <component base="s" xOffset="49" yOffset="211"/>
  </outline>
</glyph>
<glyph name="parenleft" format="1">
  <advance width="650"/>
  <unicode hex="0028"/>
  <outline>
    <contour>
      <point x="448" y="-245" type="curve" smooth="yes"/>
      <point x="502" y="-245"/>
      <point x="544" y="-204"/>
      <point x="544" y="-143" type="curve" smooth="yes"/>
      <point x="544" y="-121"/>
      <point x="537" y="-98"/>
      <point x="530" y="-74" type="curve" smooth="yes"/>
      <point x="448" y="160"/>
      <point x="402" y="388"/>
      <point x="402" y="615" type="curve" smooth="yes"/>
      <point x="402" y="847"/>
      <point x="450" y="1084"/>
      <point x="533" y="1320" type="curve" smooth="yes"/>
      <point x="541" y="1344"/>
      <point x="547" y="1367"/>
      <point x="547" y="1388" type="curve" smooth="yes"/>
      <point x="547" y="1451"/>
      <point x="502" y="1491"/>
      <point x="449" y="1491" type="curve" smooth="yes"/>
      <point x="398" y="1491"/>
      <point x="354" y="1439"/>
      <point x="328" y="1366" type="curve" smooth="yes"/>
      <point x="229" y="1115"/>
      <point x="151" y="866"/>
      <point x="151" y="612" type="curve" smooth="yes"/>
      <point x="151" y="348"/>
      <point x="235" y="90"/>
      <point x="346" y="-173" type="curve"/>
      <point x="368" y="-227"/>
      <point x="411" y="-245"/>
    </contour>
  </outline>
</glyph>
<glyph name="asterisk" format="1">
  <advance width="1017"/>
  <unicode hex="002A"/>
  <outline>
    <contour>
      <point x="415" y="820" type="curve" smooth="yes"/>
      <point x="507" y="983" type="line"/>
      <point x="599" y="820" type="line" smooth="yes"/>
      <point x="649" y="729"/>
      <point x="773" y="795"/>
      <point x="711" y="902" type="curve" smooth="yes"/>
      <point x="620" y="1044" type="line"/>
      <point x="825" y="1038" type="line" smooth="yes"/>
      <point x="917" y="1038"/>
      <point x="917" y="1174"/>
      <point x="825" y="1174" type="curve" smooth="yes"/>
      <point x="622" y="1168" type="line"/>
      <point x="720" y="1324" type="line"/>
      <point x="771" y="1410"/>
      <point x="657" y="1489"/>
      <point x="600" y="1391" type="curve" smooth="yes"/>
      <point x="507" y="1224" type="line"/>
      <point x="410" y="1398" type="line" smooth="yes"/>
      <point x="364" y="1482"/>
      <point x="241" y="1414"/>
      <point x="298" y="1317" type="curve" smooth="yes"/>
      <point x="392" y="1168" type="line"/>
      <point x="192" y="1174" type="line" smooth="yes"/>
      <point x="99" y="1174"/>
      <point x="100" y="1038"/>
      <point x="192" y="1038" type="curve" smooth="yes"/>
      <point x="395" y="1044" type="line"/>
      <point x="296" y="889" type="line" smooth="yes"/>
      <point x="243" y="800"/>
      <point x="362" y="722"/>
    </contour>
  </outline>
</glyph>
<glyph name="comma" format="1">
  <advance width="623"/>
  <unicode hex="002C"/>
  <outline>
    <contour>
      <point x="145" y="-316" type="curve"/>
      <point x="235" y="-316" type="line"/>
      <point x="264" y="-317"/>
      <point x="279" y="-305"/>
      <point x="291" y="-273" type="curve" smooth="yes"/>
      <point x="464" y="219" type="line" smooth="yes"/>
      <point x="469" y="233"/>
      <point x="472" y="272"/>
      <point x="430" y="275" type="curve"/>
      <point x="278" y="275" type="line"/>
      <point x="246" y="274"/>
      <point x="213" y="266"/>
      <point x="205" y="219" type="curve" smooth="yes"/>
      <point x="121" y="-273" type="line" smooth="yes"/>
      <point x="119" y="-285"/>
      <point x="117" y="-315"/>
    </contour>
  </outline>
</glyph>
<glyph name="zero" format="1">
  <advance width="1244"/>
  <unicode hex="0030"/>
  <outline>
    <contour>
      <point x="622" y="197" type="curve" smooth="yes"/>
      <point x="398" y="197"/>
      <point x="365" y="460"/>
      <point x="365" y="728" type="curve" smooth="yes"/>
      <point x="365" y="996"/>
      <point x="398" y="1252"/>
      <point x="622" y="1252" type="curve" smooth="yes"/>
      <point x="846" y="1252"/>
      <point x="879" y="995"/>
      <point x="879" y="728" type="curve" smooth="yes"/>
      <point x="879" y="459"/>
      <point x="845" y="197"/>
    </contour>
    <contour>
      <point x="622" y="-26" type="curve" smooth="yes"/>
      <point x="1034" y="-26"/>
      <point x="1162" y="338"/>
      <point x="1162" y="728" type="curve" smooth="yes"/>
      <point x="1162" y="1120"/>
      <point x="1032" y="1474"/>
      <point x="622" y="1474" type="curve" smooth="yes"/>
      <point x="207" y="1474"/>
      <point x="81" y="1116"/>
      <point x="81" y="728" type="curve" smooth="yes"/>
      <point x="81" y="336"/>
      <point x="209" y="-26"/>
    </contour>
  </outline>
</glyph>
<glyph name="A" format="1">
  <advance width="1468"/>
  <unicode hex="0041"/>
  <outline>
    <contour>
      <point x="733" y="1438" type="move" name="top"/>
    </contour>
    <contour>
      <point x="1266" y="19" type="move" name="ogonek"/>
    </contour>
    <contour>
      <point x="327" y="92" type="curve" smooth="yes"/>
      <point x="736" y="1184" type="line"/>
      <point x="736" y="1458" type="line"/>
      <point x="647" y="1458"/>
      <point x="569" y="1432"/>
      <point x="508" y="1271" type="curve" smooth="yes"/>
      <point x="69" y="172" type="line" smooth="yes"/>
      <point x="7" y="3"/>
      <point x="264" y="-87"/>
    </contour>
    <contour>
      <point x="1145" y="92" type="line"/>
      <point x="1208" y="-87"/>
      <point x="1465" y="3"/>
      <point x="1403" y="172" type="curve" smooth="yes"/>
      <point x="964" y="1271" type="line" smooth="yes"/>
      <point x="903" y="1432"/>
      <point x="825" y="1458"/>
      <point x="736" y="1458" type="curve"/>
      <point x="736" y="1184" type="line"/>
    </contour>
    <contour>
      <point x="289" y="332" type="line"/>
      <point x="1192" y="332" type="line"/>
      <point x="1118" y="525" type="line"/>
      <point x="358" y="525" type="line"/>
    </contour>
  </outline>
</glyph>
<glyph name="H" format="1">
  <advance width="1531"/>
  <unicode hex="0048"/>
  <outline>
    <contour>
      <point x="771" y="1438" type="move" name="top"/>
    </contour>
    <contour>
      <point x="311" y="1" type="curve" smooth="yes"/>
      <point x="386" y="1"/>
      <point x="455" y="57"/>
      <point x="455" y="150" type="curve" smooth="yes"/>
      <point x="455" y="630" type="line"/>
      <point x="1075" y="630" type="line"/>
      <point x="1075" y="150" type="line" smooth="yes"/>
      <point x="1075" y="57"/>
      <point x="1145" y="1"/>
      <point x="1219" y="1" type="curve" smooth="yes"/>
      <point x="1294" y="1"/>
      <point x="1362" y="57"/>
      <point x="1362" y="150" type="curve" smooth="yes"/>
      <point x="1362" y="1292" type="line" smooth="yes"/>
      <point x="1362" y="1385"/>
      <point x="1294" y="1441"/>
      <point x="1220" y="1441" type="curve" smooth="yes"/>
      <point x="1145" y="1441"/>
      <point x="1075" y="1385"/>
      <point x="1075" y="1292" type="curve" smooth="yes"/>
      <point x="1075" y="864" type="line"/>
      <point x="455" y="864" type="line"/>
      <point x="455" y="1292" type="line" smooth="yes"/>
      <point x="455" y="1385"/>
      <point x="386" y="1441"/>
      <point x="312" y="1441" type="curve" smooth="yes"/>
      <point x="237" y="1441"/>
      <point x="168" y="1385"/>
      <point x="168" y="1292" type="curve" smooth="yes"/>
      <point x="168" y="150" type="line" smooth="yes"/>
      <point x="168" y="57"/>
      <point x="237" y="1"/>
    </contour>
  </outline>
</glyph>
<glyph name="M" format="1">
  <advance width="1941"/>
  <unicode hex="004D"/>
  <outline>
    <contour>
      <point x="985" y="1438" type="move" name="top"/>
    </contour>
    <contour>
      <point x="963" y="54" type="curve"/>
      <point x="963" y="403" type="line"/>
      <point x="615" y="1234" type="line" smooth="yes"/>
      <point x="511" y="1500"/>
      <point x="168" y="1422"/>
      <point x="168" y="1215" type="curve" smooth="yes"/>
      <point x="169" y="119" type="line" smooth="yes"/>
      <point x="169" y="-20"/>
      <point x="428" y="-21"/>
      <point x="428" y="119" type="curve" smooth="yes"/>
      <point x="428" y="1089" type="line"/>
      <point x="799" y="192" type="line" smooth="yes"/>
      <point x="833" y="101"/>
      <point x="892" y="54"/>
    </contour>
    <contour>
      <point x="964" y="54" type="line"/>
      <point x="1035" y="54"/>
      <point x="1094" y="102"/>
      <point x="1129" y="192" type="curve" smooth="yes"/>
      <point x="1499" y="1089" type="line"/>
      <point x="1499" y="119" type="line" smooth="yes"/>
      <point x="1499" y="-21"/>
      <point x="1759" y="-20"/>
      <point x="1759" y="119" type="curve" smooth="yes"/>
      <point x="1759" y="1215" type="line" smooth="yes"/>
      <point x="1759" y="1422"/>
      <point x="1416" y="1500"/>
      <point x="1313" y="1234" type="curve" smooth="yes"/>
      <point x="964" y="403" type="line"/>
    </contour>
  </outline>
</glyph>
<glyph name="U" format="1">
  <advance width="1516"/>
  <unicode hex="0055"/>
  <outline>
    <contour>
      <point x="776" y="1438" type="move" name="top"/>
    </contour>
    <contour>
      <point x="908" y="9" type="move" name="ogonek"/>
    </contour>
    <contour>
      <point x="757" y="-26" type="curve" smooth="yes"/>
      <point x="1089" y="-26"/>
      <point x="1355" y="146"/>
      <point x="1355" y="498" type="curve" smooth="yes"/>
      <point x="1355" y="1299" type="line" smooth="yes"/>
      <point x="1355" y="1392"/>
      <point x="1286" y="1448"/>
      <point x="1212" y="1448" type="curve" smooth="yes"/>
      <point x="1137" y="1448"/>
      <point x="1068" y="1392"/>
      <point x="1068" y="1299" type="curve" smooth="yes"/>
      <point x="1068" y="505" type="line" smooth="yes"/>
      <point x="1068" y="289"/>
      <point x="912" y="200"/>
      <point x="757" y="200" type="curve" smooth="yes"/>
      <point x="604" y="200"/>
      <point x="449" y="289"/>
      <point x="449" y="505" type="curve" smooth="yes"/>
      <point x="449" y="1299" type="line" smooth="yes"/>
      <point x="449" y="1392"/>
      <point x="380" y="1448"/>
      <point x="305" y="1448" type="curve" smooth="yes"/>
      <point x="230" y="1448"/>
      <point x="162" y="1392"/>
      <point x="162" y="1299" type="curve" smooth="yes"/>
      <point x="162" y="498" type="line" smooth="yes"/>
      <point x="162" y="144"/>
      <point x="427" y="-26"/>
    </contour>
  </outline>
</glyph>
<glyph name="Z" format="1">
  <advance width="1203"/>
  <unicode hex="005A"/>
  <outline>
    <contour>
      <point x="646" y="1438" type="move" name="top"/>
    </contour>
    <contour>
      <point x="211" y="0" type="curve" smooth="yes"/>
      <point x="1047" y="0" type="line" smooth="yes"/>
      <point x="1115" y="0"/>
      <point x="1152" y="57"/>
      <point x="1152" y="113" type="curve" smooth="yes"/>
      <point x="1152" y="170"/>
      <point x="1115" y="225"/>
      <point x="1047" y="225" type="curve" smooth="yes"/>
      <point x="424" y="225" type="line"/>
      <point x="1122" y="1230" type="line" smooth="yes"/>
      <point x="1144" y="1263"/>
      <point x="1156" y="1299"/>
      <point x="1156" y="1331" type="curve" smooth="yes"/>
      <point x="1156" y="1400"/>
      <point x="1106" y="1443"/>
      <point x="1030" y="1443" type="curve" smooth="yes"/>
      <point x="197" y="1443" type="line" smooth="yes"/>
      <point x="129" y="1443"/>
      <point x="92" y="1387"/>
      <point x="92" y="1330" type="curve" smooth="yes"/>
      <point x="92" y="1274"/>
      <point x="129" y="1216"/>
      <point x="197" y="1216" type="curve" smooth="yes"/>
      <point x="807" y="1216" type="line"/>
      <point x="112" y="214" type="line" smooth="yes"/>
      <point x="92" y="182"/>
      <point x="79" y="145"/>
      <point x="79" y="113" type="curve" smooth="yes"/>
      <point x="79" y="53"/>
      <point x="121" y="0"/>
    </contour>
  </outline>
</glyph>
<glyph name="asciicircum" format="1">
  <advance width="1308"/>
  <unicode hex="005E"/>
  <outline>
    <contour>
      <point x="259" y="521" type="curve" smooth="yes"/>
      <point x="301" y="521"/>
      <point x="331" y="554"/>
      <point x="355" y="605" type="curve"/>
      <point x="663" y="1223" type="line"/>
      <point x="971" y="605" type="line" smooth="yes"/>
      <point x="996" y="557"/>
      <point x="1025" y="523"/>
      <point x="1067" y="523" type="curve" smooth="yes"/>
      <point x="1115" y="523"/>
      <point x="1157" y="556"/>
      <point x="1157" y="608" type="curve" smooth="yes"/>
      <point x="1157" y="627"/>
      <point x="1145" y="655"/>
      <point x="1135" y="678" type="curve"/>
      <point x="793" y="1347" type="line" smooth="yes"/>
      <point x="760" y="1416"/>
      <point x="720" y="1454"/>
      <point x="664" y="1454" type="curve" smooth="yes"/>
      <point x="602" y="1454"/>
      <point x="563" y="1406"/>
      <point x="534" y="1347" type="curve" smooth="yes"/>
      <point x="191" y="678" type="line"/>
      <point x="181" y="655"/>
      <point x="169" y="627"/>
      <point x="169" y="609" type="curve" smooth="yes"/>
      <point x="169" y="555"/>
      <point x="211" y="521"/>
    </contour>
  </outline>
</glyph>
<glyph name="b" format="1">
  <advance width="1226"/>
  <unicode hex="0062"/>
  <outline>
    <contour>
      <point x="713" y="-14" type="curve" smooth="yes"/>
      <point x="986" y="-14"/>
      <point x="1146" y="213"/>
      <point x="1146" y="506" type="curve" smooth="yes"/>
      <point x="1146" y="823"/>
      <point x="968" y="1014"/>
      <point x="699" y="1014" type="curve" smooth="yes"/>
      <point x="553" y="1014"/>
      <point x="448" y="960"/>
      <point x="383" y="854" type="curve"/>
      <point x="383" y="1307" type="line" smooth="yes"/>
      <point x="383" y="1396"/>
      <point x="327" y="1443"/>
      <point x="256" y="1443" type="curve" smooth="yes"/>
      <point x="187" y="1443"/>
      <point x="132" y="1396"/>
      <point x="132" y="1307" type="curve" smooth="yes"/>
      <point x="132" y="142" type="line" smooth="yes"/>
      <point x="132" y="52"/>
      <point x="191" y="0"/>
      <point x="260" y="0" type="curve" smooth="yes"/>
      <point x="332" y="0"/>
      <point x="383" y="40"/>
      <point x="383" y="124" type="curve" smooth="yes"/>
      <point x="383" y="159" type="line"/>
      <point x="450" y="37"/>
      <point x="566" y="-14"/>
    </contour>
    <contour>
      <point x="649" y="154" type="curve" smooth="yes"/>
      <point x="449" y="154"/>
      <point x="384" y="284"/>
      <point x="384" y="502" type="curve" smooth="yes"/>
      <point x="384" y="688"/>
      <point x="459" y="844"/>
      <point x="646" y="844" type="curve" smooth="yes"/>
      <point x="836" y="844"/>
      <point x="898" y="672"/>
      <point x="898" y="504" type="curve" smooth="yes"/>
      <point x="898" y="353"/>
      <point x="842" y="154"/>
    </contour>
  </outline>
</glyph>
<glyph name="l" format="1">
  <advance width="524"/>
  <unicode hex="006C"/>
  <outline>
    <contour>
      <point x="232" y="1441" type="move" name="top"/>
    </contour>
    <contour>
      <point x="263" y="1030" type="move" name="caron.alt"/>
    </contour>
    <contour>
      <point x="260" y="0" type="move" name="bot"/>
    </contour>
    <contour>
      <point x="261" y="0" type="curve" smooth="yes"/>
      <point x="332" y="0"/>
      <point x="390" y="49"/>
      <point x="390" y="140" type="curve" smooth="yes"/>
      <point x="390" y="1301" type="line" smooth="yes"/>
      <point x="390" y="1392"/>
      <point x="334" y="1441"/>
      <point x="263" y="1441" type="curve" smooth="yes"/>
      <point x="193" y="1441"/>
      <point x="138" y="1392"/>
      <point x="138" y="1301" type="curve" smooth="yes"/>
      <point x="138" y="140" type="line" smooth="yes"/>
      <point x="138" y="48"/>
      <point x="192" y="0"/>
    </contour>
  </outline>
</glyph>
<glyph name="q" format="1">
  <advance width="1226"/>
  <unicode hex="0071"/>
  <outline>
    <contour>
      <point x="970" y="-379" type="curve" smooth="yes"/>
      <point x="1040" y="-379"/>
      <point x="1094" y="-332"/>
      <point x="1094" y="-243" type="curve" smooth="yes"/>
      <point x="1094" y="860" type="line" smooth="yes"/>
      <point x="1094" y="950"/>
      <point x="1036" y="1003"/>
      <point x="967" y="1003" type="curve" smooth="yes"/>
      <point x="894" y="1003"/>
      <point x="844" y="962"/>
      <point x="844" y="878" type="curve" smooth="yes"/>
      <point x="844" y="843" type="line"/>
      <point x="776" y="965"/>
      <point x="661" y="1017"/>
      <point x="513" y="1017" type="curve" smooth="yes"/>
      <point x="240" y="1017"/>
      <point x="80" y="789"/>
      <point x="80" y="496" type="curve" smooth="yes"/>
      <point x="80" y="180"/>
      <point x="259" y="-12"/>
      <point x="527" y="-12" type="curve" smooth="yes"/>
      <point x="674" y="-12"/>
      <point x="779" y="42"/>
      <point x="843" y="149" type="curve"/>
      <point x="843" y="-243" type="line" smooth="yes"/>
      <point x="843" y="-332"/>
      <point x="899" y="-379"/>
    </contour>
    <contour>
      <point x="580" y="158" type="curve" smooth="yes"/>
      <point x="391" y="158"/>
      <point x="328" y="330"/>
      <point x="328" y="498" type="curve" smooth="yes"/>
      <point x="328" y="648"/>
      <point x="384" y="848"/>
      <point x="578" y="848" type="curve" smooth="yes"/>
      <point x="777" y="848"/>
      <point x="842" y="718"/>
      <point x="842" y="500" type="curve" smooth="yes"/>
      <point x="842" y="314"/>
      <point x="767" y="158"/>
    </contour>
  </outline>
</glyph>
<glyph name="v" format="1">
  <advance width="1072"/>
  <unicode hex="0076"/>
  <outline>
    <contour>
      <point x="539" y="-6" type="curve"/>
      <point x="539" y="254" type="line"/>
      <point x="277" y="921" type="line" smooth="yes"/>
      <point x="219" y="1081"/>
      <point x="2" y="991"/>
      <point x="60" y="841" type="curve" smooth="yes"/>
      <point x="326" y="194" type="line" smooth="yes"/>
      <point x="381" y="47"/>
      <point x="428" y="-6"/>
    </contour>
    <contour>
      <point x="539" y="-6" type="line"/>
      <point x="649" y="-6"/>
      <point x="696" y="47"/>
      <point x="751" y="194" type="curve" smooth="yes"/>
      <point x="1018" y="841" type="line" smooth="yes"/>
      <point x="1076" y="991"/>
      <point x="859" y="1081"/>
      <point x="801" y="921" type="curve" smooth="yes"/>
      <point x="539" y="254" type="line"/>
    </contour>
  </outline>
</glyph>
<glyph name="w" format="1">
  <advance width="1711"/>
  <unicode hex="0077"/>
  <outline>
    <contour>
      <point x="865" y="1013" type="move" name="top"/>
    </contour>
    <contour>
      <point x="475" y="0" type="curve" smooth="yes"/>
      <point x="558" y="0"/>
      <point x="617" y="33"/>
      <point x="662" y="181" type="curve" smooth="yes"/>
      <point x="862" y="769" type="line"/>
      <point x="862" y="1004" type="line"/>
      <point x="780" y="1004"/>
      <point x="733" y="953"/>
      <point x="703" y="858" type="curve" smooth="yes"/>
      <point x="501" y="258" type="line"/>
      <point x="305" y="914" type="line" smooth="yes"/>
      <point x="263" y="1065"/>
      <point x="43" y="1005"/>
      <point x="89" y="852" type="curve" smooth="yes"/>
      <point x="311" y="168" type="line" smooth="yes"/>
      <point x="346" y="48"/>
      <point x="401" y="0"/>
    </contour>
    <contour>
      <point x="1249" y="0" type="curve" smooth="yes"/>
      <point x="1323" y="0"/>
      <point x="1378" y="48"/>
      <point x="1413" y="168" type="curve" smooth="yes"/>
      <point x="1635" y="852" type="line" smooth="yes"/>
      <point x="1681" y="1005"/>
      <point x="1462" y="1065"/>
      <point x="1419" y="914" type="curve" smooth="yes"/>
      <point x="1223" y="258" type="line"/>
      <point x="1021" y="858" type="line" smooth="yes"/>
      <point x="991" y="953"/>
      <point x="944" y="1004"/>
      <point x="862" y="1004" type="curve"/>
      <point x="862" y="769" type="line"/>
      <point x="1062" y="181" type="line" smooth="yes"/>
      <point x="1107" y="33"/>
      <point x="1166" y="0"/>
    </contour>
  </outline>
</glyph>
<glyph name="sterling" format="1">
  <advance width="1384"/>
  <unicode hex="00A3"/>
  <outline>
    <contour>
      <point x="231" y="-1" type="curve" smooth="yes"/>
      <point x="1103" y="-1" type="line" smooth="yes"/>
      <point x="1185" y="-1"/>
      <point x="1185" y="219"/>
      <point x="1103" y="219" type="curve" smooth="yes"/>
      <point x="562" y="219" type="line"/>
      <point x="562" y="702" type="line"/>
      <point x="875" y="702" type="line" smooth="yes"/>
      <point x="967" y="702"/>
      <point x="946" y="893"/>
      <point x="878" y="893" type="curve" smooth="yes"/>
      <point x="562" y="893" type="line"/>
      <point x="562" y="979" type="line" smooth="yes"/>
      <point x="562" y="1182"/>
      <point x="580" y="1259"/>
      <point x="759" y="1259" type="curve" smooth="yes"/>
      <point x="843" y="1259"/>
      <point x="944" y="1242"/>
      <point x="1024" y="1225" type="curve" smooth="yes"/>
      <point x="1086" y="1211"/>
      <point x="1113" y="1393"/>
      <point x="1076" y="1407" type="curve" smooth="yes"/>
      <point x="1006" y="1432"/>
      <point x="863" y="1465"/>
      <point x="736" y="1465" type="curve" smooth="yes"/>
      <point x="455" y="1465"/>
      <point x="300" y="1324"/>
      <point x="300" y="1055" type="curve" smooth="yes"/>
      <point x="300" y="893" type="line"/>
      <point x="194" y="893" type="line" smooth="yes"/>
      <point x="117" y="893"/>
      <point x="132" y="702"/>
      <point x="194" y="702" type="curve" smooth="yes"/>
      <point x="300" y="702" type="line"/>
      <point x="300" y="216" type="line"/>
      <point x="229" y="216" type="line" smooth="yes"/>
      <point x="155" y="216"/>
      <point x="156" y="-1"/>
    </contour>
  </outline>
</glyph>
<glyph name="copyright" format="1">
  <advance width="1700"/>
  <unicode hex="00A9"/>
  <outline>
    <contour>
      <point x="866" y="382" type="curve" smooth="yes"/>
      <point x="948" y="382"/>
      <point x="1131" y="414"/>
      <point x="1131" y="496" type="curve" smooth="yes"/>
      <point x="1131" y="524"/>
      <point x="1110" y="550"/>
      <point x="1084" y="550" type="curve" smooth="yes"/>
      <point x="1079" y="550"/>
      <point x="1072" y="549"/>
      <point x="1065" y="546" type="curve"/>
      <point x="1004" y="516"/>
      <point x="945" y="502"/>
      <point x="886" y="502" type="curve" smooth="yes"/>
      <point x="746" y="502"/>
      <point x="627" y="597"/>
      <point x="627" y="781" type="curve" smooth="yes"/>
      <point x="627" y="973"/>
      <point x="742" y="1049"/>
      <point x="880" y="1049" type="curve" smooth="yes"/>
      <point x="933" y="1049"/>
      <point x="991" y="1037"/>
      <point x="1044" y="1015" type="curve"/>
      <point x="1058" y="1011"/>
      <point x="1074" y="1001"/>
      <point x="1083" y="1001" type="curve" smooth="yes"/>
      <point x="1115" y="1001"/>
      <point x="1135" y="1033"/>
      <point x="1135" y="1063" type="curve" smooth="yes"/>
      <point x="1135" y="1136"/>
      <point x="946" y="1170"/>
      <point x="866" y="1170" type="curve" smooth="yes"/>
      <point x="661" y="1170"/>
      <point x="480" y="1039"/>
      <point x="480" y="779" type="curve" smooth="yes"/>
      <point x="480" y="513"/>
      <point x="666" y="382"/>
    </contour>
    <contour>
      <point x="858" y="219" type="curve" smooth="yes"/>
      <point x="529" y="219"/>
      <point x="286" y="460"/>
      <point x="286" y="775" type="curve" smooth="yes"/>
      <point x="286" y="1092"/>
      <point x="530" y="1331"/>
      <point x="858" y="1331" type="curve" smooth="yes"/>
      <point x="1185" y="1331"/>
      <point x="1427" y="1089"/>
      <point x="1427" y="775" type="curve" smooth="yes"/>
      <point x="1427" y="454"/>
      <point x="1180" y="219"/>
    </contour>
    <contour>
      <point x="858" y="89" type="curve" smooth="yes"/>
      <point x="1251" y="89"/>
      <point x="1571" y="397"/>
      <point x="1571" y="775" type="curve" smooth="yes"/>
      <point x="1571" y="1159"/>
      <point x="1248" y="1464"/>
      <point x="858" y="1464" type="curve" smooth="yes"/>
      <point x="460" y="1464"/>
      <point x="142" y="1149"/>
      <point x="142" y="775" type="curve" smooth="yes"/>
      <point x="142" y="393"/>
      <point x="466" y="89"/>
    </contour>
  </outline>
</glyph>
<glyph name="Oslash" format="1">
  <advance width="1606"/>
  <unicode hex="00D8"/>
  <outline>
    <contour>
      <point x="300" y="-186" type="curve" smooth="yes"/>
      <point x="333" y="-186"/>
      <point x="354" y="-160"/>
      <point x="379" y="-121" type="curve"/>
      <point x="1403" y="1452" type="line" smooth="yes"/>
      <point x="1419" y="1477"/>
      <point x="1429" y="1504"/>
      <point x="1429" y="1527" type="curve" smooth="yes"/>
      <point x="1429" y="1572"/>
      <point x="1392" y="1604"/>
      <point x="1351" y="1604" type="curve" smooth="yes"/>
      <point x="1323" y="1604"/>
      <point x="1297" y="1591"/>
      <point x="1278" y="1560" type="curve" smooth="yes"/>
      <point x="244" y="-42" type="line" smooth="yes"/>
      <point x="230" y="-64"/>
      <point x="221" y="-89"/>
      <point x="221" y="-111" type="curve" smooth="yes"/>
      <point x="221" y="-157"/>
      <point x="258" y="-186"/>
    </contour>
    <component base="O"/>
  </outline>
</glyph>
<glyph name="oslash" format="1">
  <advance width="1215"/>
  <unicode hex="00F8"/>
  <outline>
    <contour>
      <point x="579" y="991" type="move" name="top"/>
    </contour>
    <contour>
      <point x="317" y="-176" type="curve" smooth="yes"/>
      <point x="340" y="-176"/>
      <point x="363" y="-164"/>
      <point x="377" y="-135" type="curve"/>
      <point x="963" y="1049" type="line"/>
      <point x="974" y="1071"/>
      <point x="986" y="1098"/>
      <point x="986" y="1119" type="curve" smooth="yes"/>
      <point x="986" y="1160"/>
      <point x="952" y="1185"/>
      <point x="916" y="1185" type="curve" smooth="yes"/>
      <point x="888" y="1185"/>
      <point x="865" y="1172"/>
      <point x="851" y="1144" type="curve"/>
      <point x="262" y="-55" type="line"/>
      <point x="252" y="-73"/>
      <point x="246" y="-91"/>
      <point x="246" y="-109" type="curve" smooth="yes"/>
      <point x="246" y="-147"/>
      <point x="279" y="-176"/>
    </contour>
    <component base="o"/>
  </outline>
</glyph>
<glyph name="thorn" format="1">
  <advance width="1217"/>
  <unicode hex="00FE"/>
  <outline>
    <contour>
      <point x="247" y="-341" type="curve" smooth="yes"/>
      <point x="308" y="-341"/>
      <point x="372" y="-300"/>
      <point x="372" y="-217" type="curve" smooth="yes"/>
      <point x="372" y="188" type="line"/>
      <point x="456" y="45"/>
      <point x="583" y="-22"/>
      <point x="726" y="-22" type="curve" smooth="yes"/>
      <point x="996" y="-22"/>
      <point x="1136" y="225"/>
      <point x="1136" y="508" type="curve" smooth="yes"/>
      <point x="1136" y="813"/>
      <point x="985" y="1027"/>
      <point x="721" y="1027" type="curve" smooth="yes"/>
      <point x="584" y="1027"/>
      <point x="444" y="960"/>
      <point x="376" y="830" type="curve"/>
      <point x="376" y="1274" type="line" smooth="yes"/>
      <point x="376" y="1376"/>
      <point x="323" y="1440"/>
      <point x="249" y="1440" type="curve" smooth="yes"/>
      <point x="174" y="1440"/>
      <point x="124" y="1380"/>
      <point x="124" y="1296" type="curve" smooth="yes"/>
      <point x="124" y="-203" type="line" smooth="yes"/>
      <point x="124" y="-294"/>
      <point x="178" y="-341"/>
    </contour>
    <contour>
      <point x="644" y="145" type="curve" smooth="yes"/>
      <point x="435" y="145"/>
      <point x="376" y="294"/>
      <point x="376" y="514" type="curve" smooth="yes"/>
      <point x="376" y="706"/>
      <point x="442" y="856"/>
      <point x="633" y="856" type="curve" smooth="yes"/>
      <point x="821" y="856"/>
      <point x="878" y="688"/>
      <point x="878" y="510" type="curve" smooth="yes"/>
      <point x="878" y="339"/>
      <point x="835" y="145"/>
    </contour>
  </outline>
</glyph>
<glyph name="lslash" format="1">
  <advance width="522"/>
  <unicode hex="0142"/>
  <outline>
    <contour>
      <point x="-7" y="555" type="curve" smooth="yes"/>
      <point x="10" y="555"/>
      <point x="27" y="563"/>
      <point x="42" y="571" type="curve"/>
      <point x="574" y="825" type="line"/>
      <point x="622" y="846"/>
      <point x="651" y="891"/>
      <point x="651" y="926" type="curve" smooth="yes"/>
      <point x="651" y="969"/>
      <point x="619" y="1016"/>
      <point x="571" y="1016" type="curve" smooth="yes"/>
      <point x="553" y="1016"/>
      <point x="537" y="1008"/>
      <point x="521" y="999" type="curve"/>
      <point x="-44" y="727" type="line"/>
      <point x="-80" y="711"/>
      <point x="-94" y="681"/>
      <point x="-94" y="650" type="curve" smooth="yes"/>
      <point x="-94" y="599"/>
      <point x="-56" y="555"/>
    </contour>
    <component base="l"/>
  </outline>
</glyph>
<glyph name="OE" format="1">
  <advance width="1997"/>
  <unicode hex="0152"/>
  <outline>
    <contour>
      <point x="727" y="-22" type="curve" smooth="yes"/>
      <point x="828" y="-22"/>
      <point x="1044" y="-1"/>
      <point x="1073" y="-1" type="curve" smooth="yes"/>
      <point x="1779" y="-1" type="line" smooth="yes"/>
      <point x="1852" y="-1"/>
      <point x="1892" y="45"/>
      <point x="1892" y="106" type="curve" smooth="yes"/>
      <point x="1892" y="175"/>
      <point x="1842" y="214"/>
      <point x="1768" y="214" type="curve" smooth="yes"/>
      <point x="1305" y="214" type="line"/>
      <point x="1305" y="630" type="line"/>
      <point x="1708" y="630" type="line" smooth="yes"/>
      <point x="1788" y="630"/>
      <point x="1832" y="670"/>
      <point x="1832" y="736" type="curve" smooth="yes"/>
      <point x="1832" y="805"/>
      <point x="1784" y="844"/>
      <point x="1714" y="844" type="curve" smooth="yes"/>
      <point x="1305" y="844" type="line"/>
      <point x="1305" y="1227" type="line"/>
      <point x="1749" y="1227" type="line" smooth="yes"/>
      <point x="1830" y="1227"/>
      <point x="1873" y="1268"/>
      <point x="1873" y="1335" type="curve" smooth="yes"/>
      <point x="1873" y="1398"/>
      <point x="1830" y="1442"/>
      <point x="1759" y="1442" type="curve" smooth="yes"/>
      <point x="1103" y="1442" type="line" smooth="yes"/>
      <point x="1069" y="1442"/>
      <point x="876" y="1462"/>
      <point x="750" y="1462" type="curve" smooth="yes"/>
      <point x="341" y="1462"/>
      <point x="100" y="1181"/>
      <point x="100" y="720" type="curve" smooth="yes"/>
      <point x="100" y="259"/>
      <point x="345" y="-22"/>
    </contour>
    <contour>
      <point x="745" y="179" type="curve"/>
      <point x="491" y="179"/>
      <point x="384" y="416"/>
      <point x="384" y="723" type="curve" smooth="yes"/>
      <point x="384" y="1032"/>
      <point x="500" y="1260"/>
      <point x="746" y="1260" type="curve" smooth="yes"/>
      <point x="920" y="1260"/>
      <point x="1017" y="1243"/>
      <point x="1030" y="1238" type="curve"/>
      <point x="1030" y="206" type="line"/>
      <point x="1020" y="200"/>
      <point x="911" y="182"/>
    </contour>
  </outline>
</glyph>
<glyph name="caron" format="1">
  <advance width="569"/>
  <unicode hex="02C7"/>
  <outline>
    <contour>
      <point x="283" y="1040" type="move" name="_top"/>
    </contour>
    <contour>
      <point x="284" y="1119" type="curve" smooth="yes"/>
      <point x="322" y="1119"/>
      <point x="360" y="1142"/>
      <point x="392" y="1186" type="curve" smooth="yes"/>
      <point x="574" y="1423" type="line" smooth="yes"/>
      <point x="589" y="1444"/>
      <point x="600" y="1467"/>
      <point x="600" y="1487" type="curve" smooth="yes"/>
      <point x="600" y="1529"/>
      <point x="568" y="1558"/>
      <point x="527" y="1558" type="curve" smooth="yes"/>
      <point x="496" y="1558"/>
      <point x="464" y="1538"/>
      <point x="438" y="1500" type="curve" smooth="yes"/>
      <point x="284" y="1297" type="line"/>
      <point x="127" y="1503" type="line" smooth="yes"/>
      <point x="99" y="1542"/>
      <point x="66" y="1559"/>
      <point x="37" y="1559" type="curve" smooth="yes"/>
      <point x="-4" y="1559"/>
      <point x="-38" y="1531"/>
      <point x="-38" y="1491" type="curve" smooth="yes"/>
      <point x="-38" y="1471"/>
      <point x="-31" y="1454"/>
      <point x="-15" y="1433" type="curve" smooth="yes"/>
      <point x="177" y="1180" type="line"/>
      <point x="209" y="1141"/>
      <point x="245" y="1119"/>
    </contour>
  </outline>
</glyph>
<glyph name="uni02C9" format="1">
  <advance width="569"/>
  <unicode hex="02C9"/>
  <outline>
    <contour>
      <point x="289" y="1040" type="move" name="_top"/>
    </contour>
    <contour>
      <point x="42" y="1276" type="curve" smooth="yes"/>
      <point x="529" y="1276" type="line" smooth="yes"/>
      <point x="584" y="1276"/>
      <point x="609" y="1314"/>
      <point x="609" y="1359" type="curve" smooth="yes"/>
      <point x="609" y="1406"/>
      <point x="580" y="1442"/>
      <point x="529" y="1442" type="curve" smooth="yes"/>
      <point x="44" y="1442" type="line" smooth="yes"/>
      <point x="-11" y="1442"/>
      <point x="-38" y="1402"/>
      <point x="-38" y="1359" type="curve" smooth="yes"/>
      <point x="-38" y="1314"/>
      <point x="-10" y="1276"/>
    </contour>
  </outline>
</glyph>
<glyph name="tilde" format="1">
  <advance width="569"/>
  <unicode hex="02DC"/>
  <outline>
    <contour>
      <point x="293" y="1040" type="move" name="_top"/>
    </contour>
    <contour>
      <point x="8" y="1201" type="curve" smooth="yes"/>
      <point x="35" y="1201"/>
      <point x="59" y="1210"/>
      <point x="77" y="1240" type="curve" smooth="yes"/>
      <point x="96" y="1271"/>
      <point x="117" y="1295"/>
      <point x="150" y="1295" type="curve" smooth="yes"/>
      <point x="220" y="1295"/>
      <point x="315" y="1201"/>
      <point x="419" y="1201" type="curve" smooth="yes"/>
      <point x="520" y="1201"/>
      <point x="599" y="1273"/>
      <point x="607" y="1391" type="curve"/>
      <point x="607" y="1420"/>
      <point x="587" y="1440"/>
      <point x="563" y="1441" type="curve" smooth="yes"/>
      <point x="559" y="1449"/>
      <point x="551" y="1454"/>
      <point x="540" y="1454" type="curve" smooth="yes"/>
      <point x="474" y="1440"/>
      <point x="470" y="1359"/>
      <point x="421" y="1359" type="curve" smooth="yes"/>
      <point x="353" y="1359"/>
      <point x="257" y="1451"/>
      <point x="143" y="1451" type="curve" smooth="yes"/>
      <point x="33" y="1451"/>
      <point x="-27" y="1382"/>
      <point x="-48" y="1269" type="curve"/>
      <point x="-49" y="1265"/>
      <point x="-50" y="1261"/>
      <point x="-50" y="1256" type="curve" smooth="yes"/>
      <point x="-50" y="1220"/>
      <point x="-23" y="1201"/>
    </contour>
  </outline>
</glyph>
<glyph name="Sigma" format="1">
  <advance width="1412"/>
  <unicode hex="03A3"/>
  <outline>
    <contour>
      <point x="350" y="-203" type="curve" smooth="yes"/>
      <point x="1162" y="-202" type="line" smooth="yes"/>
      <point x="1312" y="-202"/>
      <point x="1314" y="59"/>
      <point x="1162" y="59" type="curve" smooth="yes"/>
      <point x="430" y="59" type="line"/>
      <point x="874" y="471" type="line" smooth="yes"/>
      <point x="980" y="571"/>
      <point x="997" y="666"/>
      <point x="874" y="779" type="curve" smooth="yes"/>
      <point x="431" y="1185" type="line"/>
      <point x="1162" y="1185" type="line" smooth="yes"/>
      <point x="1314" y="1185"/>
      <point x="1312" y="1445"/>
      <point x="1162" y="1445" type="curve" smooth="yes"/>
      <point x="357" y="1445" type="line" smooth="yes"/>
      <point x="159" y="1445"/>
      <point x="56" y="1256"/>
      <point x="242" y="1074" type="curve" smooth="yes"/>
      <point x="713" y="623" type="line"/>
      <point x="242" y="159" type="line" smooth="yes"/>
      <point x="84" y="0"/>
      <point x="156" y="-203"/>
    </contour>
  </outline>
</glyph>
<glyph name="quoteleft" format="1">
  <advance width="622"/>
  <unicode hex="2018"/>
  <outline>
    <contour>
      <point x="142" y="874" type="curve" smooth="yes"/>
      <point x="302" y="874" type="line" smooth="yes"/>
      <point x="334" y="874"/>
      <point x="367" y="883"/>
      <point x="375" y="930" type="curve" smooth="yes"/>
      <point x="459" y="1409" type="line" smooth="yes"/>
      <point x="461" y="1421"/>
      <point x="463" y="1452"/>
      <point x="435" y="1452" type="curve" smooth="yes"/>
      <point x="345" y="1452" type="line" smooth="yes"/>
      <point x="316" y="1452"/>
      <point x="300" y="1441"/>
      <point x="289" y="1409" type="curve" smooth="yes"/>
      <point x="108" y="930" type="line" smooth="yes"/>
      <point x="103" y="916"/>
      <point x="100" y="874"/>
    </contour>
  </outline>
</glyph>
<glyph name="quotedblbase" format="1">
  <advance width="1164"/>
  <unicode hex="201E"/>
  <outline>
    <contour>
      <point x="227" y="-279" type="curve"/>
      <point x="317" y="-279" type="line"/>
      <point x="346" y="-280"/>
      <point x="362" y="-268"/>
      <point x="373" y="-236" type="curve" smooth="yes"/>
      <point x="554" y="244" type="line" smooth="yes"/>
      <point x="559" y="258"/>
      <point x="562" y="298"/>
      <point x="520" y="300" type="curve"/>
      <point x="360" y="300" type="line"/>
      <point x="328" y="299"/>
      <point x="295" y="291"/>
      <point x="287" y="244" type="curve" smooth="yes"/>
      <point x="203" y="-236" type="line" smooth="yes"/>
      <point x="201" y="-248"/>
      <point x="199" y="-278"/>
    </contour>
    <contour>
      <point x="664" y="-279" type="curve"/>
      <point x="754" y="-279" type="line"/>
      <point x="783" y="-280"/>
      <point x="799" y="-268"/>
      <point x="810" y="-236" type="curve" smooth="yes"/>
      <point x="991" y="244" type="line" smooth="yes"/>
      <point x="996" y="258"/>
      <point x="999" y="298"/>
      <point x="957" y="300" type="curve"/>
      <point x="797" y="300" type="line"/>
      <point x="765" y="299"/>
      <point x="732" y="291"/>
      <point x="724" y="244" type="curve" smooth="yes"/>
      <point x="640" y="-236" type="line" smooth="yes"/>
      <point x="638" y="-248"/>
      <point x="636" y="-279"/>
    </contour>
  </outline>
</glyph>
<glyph name="uni2113" format="1">
  <advance width="790"/>
  <unicode hex="2113"/>
  <outline>
    <contour>
      <point x="535" y="1494" type="curve" smooth="yes"/>
      <point x="386" y="1494"/>
      <point x="208" y="1400"/>
      <point x="207" y="1155" type="curve" smooth="yes"/>
      <point x="206" y="814" type="line"/>
      <point x="29" y="675" type="line" smooth="yes"/>
      <point x="14" y="663"/>
      <point x="7" y="649"/>
      <point x="7" y="636" type="curve" smooth="yes"/>
      <point x="7" y="615"/>
      <point x="24" y="597"/>
      <point x="46" y="597" type="curve" smooth="yes"/>
      <point x="56" y="597"/>
      <point x="65" y="599"/>
      <point x="78" y="609" type="curve" smooth="yes"/>
      <point x="206" y="709" type="line"/>
      <point x="206" y="289" type="line" smooth="yes"/>
      <point x="206" y="60"/>
      <point x="336" y="-17"/>
      <point x="505" y="-17" type="curve" smooth="yes"/>
      <point x="583" y="-17"/>
      <point x="648" y="-14"/>
      <point x="674" y="-10" type="curve" smooth="yes"/>
      <point x="706" y="-5"/>
      <point x="727" y="27"/>
      <point x="727" y="64" type="curve" smooth="yes"/>
      <point x="727" y="110"/>
      <point x="698" y="140"/>
      <point x="654" y="138" type="curve" smooth="yes"/>
      <point x="589" y="135" type="line" smooth="yes"/>
      <point x="497" y="131"/>
      <point x="450" y="177"/>
      <point x="450" y="334" type="curve" smooth="yes"/>
      <point x="450" y="876" type="line"/>
      <point x="675" y="1042"/>
      <point x="761" y="1132"/>
      <point x="761" y="1266" type="curve" smooth="yes"/>
      <point x="761" y="1379"/>
      <point x="691" y="1494"/>
    </contour>
    <contour>
      <point x="535" y="1348" type="curve" smooth="yes"/>
      <point x="576" y="1348"/>
      <point x="617" y="1316"/>
      <point x="617" y="1249" type="curve" smooth="yes"/>
      <point x="617" y="1149"/>
      <point x="560" y="1067"/>
      <point x="450" y="981" type="curve"/>
      <point x="450" y="1188" type="line" smooth="yes"/>
      <point x="450" y="1312"/>
      <point x="493" y="1348"/>
    </contour>
  </outline>
</glyph>
<glyph name="emptyset" format="1">
  <advance width="1745"/>
  <unicode hex="2205"/>
  <outline>
    <contour>
      <point x="425" y="25" type="curve" smooth="yes"/>
      <point x="459" y="21"/>
      <point x="487" y="58"/>
      <point x="511" y="91" type="curve" smooth="yes"/>
      <point x="1363" y="1224" type="line"/>
      <point x="1379" y="1249"/>
      <point x="1401" y="1276"/>
      <point x="1404" y="1299" type="curve" smooth="yes"/>
      <point x="1408" y="1332"/>
      <point x="1384" y="1365"/>
      <point x="1353" y="1369" type="curve" smooth="yes"/>
      <point x="1330" y="1372"/>
      <point x="1308" y="1363"/>
      <point x="1290" y="1338" type="curve" smooth="yes"/>
      <point x="410" y="165" type="line"/>
      <point x="393" y="145"/>
      <point x="372" y="113"/>
      <point x="369" y="97" type="curve" smooth="yes"/>
      <point x="365" y="64"/>
      <point x="390" y="30"/>
    </contour>
    <contour>
      <point x="874" y="256" type="curve" smooth="yes"/>
      <point x="605" y="256"/>
      <point x="411" y="457"/>
      <point x="411" y="706" type="curve" smooth="yes"/>
      <point x="411" y="963"/>
      <point x="612" y="1157"/>
      <point x="874" y="1157" type="curve" smooth="yes"/>
      <point x="1141" y="1157"/>
      <point x="1335" y="955"/>
      <point x="1335" y="706" type="curve" smooth="yes"/>
      <point x="1335" y="442"/>
      <point x="1124" y="256"/>
    </contour>
    <contour>
      <point x="874" y="129" type="curve" smooth="yes"/>
      <point x="1206" y="129"/>
      <point x="1478" y="389"/>
      <point x="1478" y="706" type="curve" smooth="yes"/>
      <point x="1478" y="1040"/>
      <point x="1192" y="1288"/>
      <point x="874" y="1288" type="curve" smooth="yes"/>
      <point x="526" y="1288"/>
      <point x="267" y="1014"/>
      <point x="267" y="706" type="curve" smooth="yes"/>
      <point x="267" y="376"/>
      <point x="550" y="129"/>
    </contour>
  </outline>
</glyph>
<glyph name="approxequal" format="1">
  <advance width="1210"/>
  <unicode hex="2248"/>
  <outline>
    <contour>
      <point x="804" y="251" type="curve" smooth="yes"/>
      <point x="915" y="251"/>
      <point x="1010" y="328"/>
      <point x="1010" y="476" type="curve" smooth="yes"/>
      <point x="1010" y="522"/>
      <point x="967" y="553"/>
      <point x="929" y="553" type="curve" smooth="yes"/>
      <point x="826" y="553"/>
      <point x="856" y="441"/>
      <point x="796" y="441" type="curve" smooth="yes"/>
      <point x="724" y="441"/>
      <point x="494" y="553"/>
      <point x="361" y="553" type="curve" smooth="yes"/>
      <point x="278" y="553"/>
      <point x="150" y="492"/>
      <point x="150" y="328" type="curve" smooth="yes"/>
      <point x="150" y="286"/>
      <point x="184" y="254"/>
      <point x="227" y="254" type="curve" smooth="yes"/>
      <point x="244" y="254"/>
      <point x="262" y="255"/>
      <point x="276" y="267" type="curve" smooth="yes"/>
      <point x="339" y="314"/>
      <point x="326" y="364"/>
      <point x="383" y="364" type="curve"/>
      <point x="461" y="359"/>
      <point x="683" y="251"/>
    </contour>
    <contour>
      <point x="804" y="685" type="curve" smooth="yes"/>
      <point x="915" y="685"/>
      <point x="1010" y="762"/>
      <point x="1010" y="910" type="curve" smooth="yes"/>
      <point x="1010" y="956"/>
      <point x="967" y="987"/>
      <point x="929" y="987" type="curve" smooth="yes"/>
      <point x="826" y="987"/>
      <point x="856" y="875"/>
      <point x="796" y="875" type="curve" smooth="yes"/>
      <point x="724" y="875"/>
      <point x="494" y="987"/>
      <point x="361" y="987" type="curve" smooth="yes"/>
      <point x="278" y="987"/>
      <point x="150" y="926"/>
      <point x="150" y="762" type="curve" smooth="yes"/>
      <point x="150" y="719"/>
      <point x="184" y="688"/>
      <point x="227" y="688" type="curve" smooth="yes"/>
      <point x="244" y="688"/>
      <point x="262" y="689"/>
      <point x="276" y="701" type="curve" smooth="yes"/>
      <point x="339" y="748"/>
      <point x="326" y="798"/>
      <point x="383" y="798" type="curve"/>
      <point x="461" y="793"/>
      <point x="683" y="685"/>
    </contour>
  </outline>
</glyph>
<glyph name="notequal" format="1">
  <advance width="1183"/>
  <unicode hex="2260"/>
  <outline>
    <contour>
      <point x="374" y="-31" type="curve" smooth="yes"/>
      <point x="409" y="-31"/>
      <point x="441" y="-9"/>
      <point x="459" y="36" type="curve" smooth="yes"/>
      <point x="562" y="268" type="line"/>
      <point x="1026" y="268" type="line" smooth="yes"/>
      <point x="1089" y="268"/>
      <point x="1119" y="307"/>
      <point x="1119" y="357" type="curve" smooth="yes"/>
      <point x="1119" y="410"/>
      <point x="1084" y="446"/>
      <point x="1026" y="446" type="curve" smooth="yes"/>
      <point x="633" y="446" type="line"/>
      <point x="741" y="694" type="line"/>
      <point x="1026" y="694" type="line" smooth="yes"/>
      <point x="1087" y="694"/>
      <point x="1118" y="732"/>
      <point x="1118" y="781" type="curve" smooth="yes"/>
      <point x="1118" y="836"/>
      <point x="1083" y="871"/>
      <point x="1026" y="871" type="curve" smooth="yes"/>
      <point x="810" y="871" type="line"/>
      <point x="886" y="1036" type="line" smooth="yes"/>
      <point x="892" y="1053"/>
      <point x="895" y="1069"/>
      <point x="896" y="1085" type="curve"/>
      <point x="896" y="1134"/>
      <point x="853" y="1166"/>
      <point x="808" y="1167" type="curve" smooth="yes"/>
      <point x="769" y="1167"/>
      <point x="739" y="1148"/>
      <point x="720" y="1101" type="curve" smooth="yes"/>
      <point x="620" y="871" type="line"/>
      <point x="188" y="871" type="line" smooth="yes"/>
      <point x="125" y="871"/>
      <point x="95" y="832"/>
      <point x="95" y="782" type="curve" smooth="yes"/>
      <point x="95" y="737"/>
      <point x="124" y="694"/>
      <point x="182" y="694" type="curve" smooth="yes"/>
      <point x="551" y="694" type="line"/>
      <point x="442" y="446" type="line"/>
      <point x="188" y="446" type="line" smooth="yes"/>
      <point x="126" y="446"/>
      <point x="96" y="407"/>
      <point x="96" y="357" type="curve" smooth="yes"/>
      <point x="96" y="303"/>
      <point x="131" y="268"/>
      <point x="188" y="268" type="curve" smooth="yes"/>
      <point x="373" y="268" type="line"/>
      <point x="297" y="102" type="line" smooth="yes"/>
      <point x="290" y="84"/>
      <point x="286" y="68"/>
      <point x="286" y="54" type="curve"/>
      <point x="286" y="3"/>
      <point x="328" y="-31"/>
    </contour>
  </outline>
</glyph>
<glyph name="fi" format="1">
  <advance width="1241"/>
  <unicode hex="FB01"/>
  <outline>
    <contour>
      <point x="329" y="1" type="curve" smooth="yes"/>
      <point x="400" y="1"/>
      <point x="455" y="56"/>
      <point x="455" y="145" type="curve" smooth="yes"/>
      <point x="455" y="837" type="line"/>
      <point x="855" y="837" type="line"/>
      <point x="855" y="151" type="line" smooth="yes"/>
      <point x="855" y="49"/>
      <point x="910" y="1"/>
      <point x="980" y="1" type="curve" smooth="yes"/>
      <point x="1055" y="1"/>
      <point x="1107" y="61"/>
      <point x="1107" y="151" type="curve" smooth="yes"/>
      <point x="1107" y="856" type="line" smooth="yes"/>
      <point x="1107" y="969"/>
      <point x="1041" y="1002"/>
      <point x="970" y="1002" type="curve" smooth="yes"/>
      <point x="455" y="1002" type="line"/>
      <point x="455" y="1031" type="line" smooth="yes"/>
      <point x="455" y="1231"/>
      <point x="463" y="1273"/>
      <point x="577" y="1273" type="curve" smooth="yes"/>
      <point x="606" y="1273"/>
      <point x="632" y="1268"/>
      <point x="662" y="1270" type="curve" smooth="yes"/>
      <point x="707" y="1274"/>
      <point x="733" y="1310"/>
      <point x="733" y="1355" type="curve" smooth="yes"/>
      <point x="733" y="1400"/>
      <point x="707" y="1433"/>
      <point x="663" y="1444" type="curve" smooth="yes"/>
      <point x="612" y="1456"/>
      <point x="559" y="1461"/>
      <point x="506" y="1461" type="curve" smooth="yes"/>
      <point x="306" y="1461"/>
      <point x="204" y="1354"/>
      <point x="204" y="1079" type="curve" smooth="yes"/>
      <point x="204" y="1002" type="line"/>
      <point x="102" y="1002" type="line" smooth="yes"/>
      <point x="41" y="1002"/>
      <point x="12" y="963"/>
      <point x="12" y="920" type="curve" smooth="yes"/>
      <point x="12" y="872"/>
      <point x="45" y="837"/>
      <point x="106" y="837" type="curve" smooth="yes"/>
      <point x="204" y="837" type="line"/>
      <point x="204" y="145" type="line" smooth="yes"/>
      <point x="204" y="49"/>
      <point x="260" y="1"/>
    </contour>
    <contour>
      <point x="980" y="1213" type="curve" smooth="yes"/>
      <point x="1063" y="1213"/>
      <point x="1126" y="1260"/>
      <point x="1126" y="1332" type="curve" smooth="yes"/>
      <point x="1126" y="1403"/>
      <point x="1063" y="1451"/>
      <point x="981" y="1451" type="curve" smooth="yes"/>
      <point x="897" y="1451"/>
      <point x="834" y="1400"/>
      <point x="834" y="1332" type="curve" smooth="yes"/>
      <point x="834" y="1262"/>
      <point x="898" y="1213"/>
    </contour>
  </outline>
</glyph>
